<?xml version="1.0" encoding="UTF-8" standalone="no"?>
<!-- Created with Inkscape (http://www.inkscape.org/) -->

<svg
   width="400mm"
   height="145mm"
   viewBox="0 0 400 145"
   version="1.1"
   id="svg1"
   sodipodi:docname="taliro_logo_v4.svg"
   inkscape:version="1.4.2 (ebf0e940d0, 2025-05-08)"
   xmlns:inkscape="http://www.inkscape.org/namespaces/inkscape"
   xmlns:sodipodi="http://sodipodi.sourceforge.net/DTD/sodipodi-0.dtd"
   xmlns="http://www.w3.org/2000/svg"
   xmlns:svg="http://www.w3.org/2000/svg">
  <sodipodi:namedview
     id="namedview1"
     pagecolor="#ffffff"
     bordercolor="#999999"
     borderopacity="1"
     inkscape:showpageshadow="0"
     inkscape:pageopacity="0"
     inkscape:pagecheckerboard="0"
     inkscape:deskcolor="#d1d1d1"
     inkscape:document-units="mm"
     showguides="true"
     inkscape:zoom="0.44587191"
     inkscape:cx="559.57774"
     inkscape:cy="394.7322"
     inkscape:current-layer="g42">
    <sodipodi:guide
       position="371.78777,97.882551"
       orientation="1,0"
       id="guide1"
       inkscape:locked="false" />
    <sodipodi:guide
       position="166.99528,107.61089"
       orientation="1,0"
       id="guide2"
       inkscape:locked="false" />
  </sodipodi:namedview>
  <defs
     id="defs1" />
  <g
     inkscape:label="taliro"
     inkscape:groupmode="layer"
     id="g42"
     style="display:inline">
    <rect
       style="display:inline;fill:#ffffff;stroke-width:2.56461"
       id="rect44"
       width="400"
       height="145"
       x="-1.7763568e-14"
       y="-1.7763568e-15"
       inkscape:label="bg" />
    <g
       id="g40"
       transform="translate(0,-1.4449328)"
       inkscape:label="logo"
       style="display:inline">
      <path
         style="fill:#7346d6;fill-opacity:1;stroke-width:2.56461;stroke-dasharray:none"
         d="m 67.595783,140.17571 c -13.89775,-1.95673 -26.35335,-8.08238 -36.73543,-18.06643 -5.58908,-5.3748 -9.64013,-10.99029 -13.28002,-18.40854 -4.58199,-9.338255 -6.6469,-18.344283 -6.65244,-29.014433 -0.004,-7.88994 1.00256,-14.22734 3.4138,-21.49155 3.85234,-11.60568 10.94614,-22.03009 20.34033,-29.8903 9.52794,-7.97211 21.61928,-12.70472 37.99017,-14.86952 6.13553,-0.81133 13.45896,-0.0912 21.50862,2.11495 25.955287,7.11356 45.424217,30.41437 48.171037,57.65208 2.10436,20.867058 -6.84269,42.795273 -23.20809,56.880433 -9.05794,7.79586 -19.159857,12.59359 -31.223797,14.82919 -3.79598,0.70344 -16.07091,0.86296 -20.32418,0.26412 z m 19.87912,-5.01328 c 24.621137,-5.1907 43.689497,-23.13056 48.772917,-45.886455 2.34262,-10.486718 2.26182,-18.591258 -0.28888,-28.975768 -5.96143,-24.27042 -23.91971,-41.60253 -47.842587,-46.1744 -6.79082,-1.29779 -10.74866,-1.53539 -15.92167,-0.95584 -9.88502,1.10746 -14.95303,2.39858 -21.21428,5.40452 -12.93382,6.20935 -23.18711,16.39773 -29.53301,29.34605 -5.32536,10.866 -7.08665,22.35651 -5.2968,34.55581 3.58135,24.409753 22.44647,45.887903 45.63019,51.950483 5.67969,1.48525 8.18373,1.74879 15.45786,1.62688 5.64519,-0.0946 7.02877,-0.21507 10.23626,-0.89128 z"
         id="path38"
         inkscape:label="outer" />
      <path
         style="fill:#7346d6;fill-opacity:1;stroke-width:2.87594;stroke-dasharray:none"
         d="m 69.645243,126.85918 c -5.86181,-0.84165 -10.9683,-2.37681 -15.47727,-4.65293 -6.70776,-3.38607 -14.62554,-9.66827 -18.95106,-15.03634 -5.13804,-6.37643 -8.45618,-13.970605 -10.07846,-23.066443 -0.81829,-4.58801 -0.88955,-12.75585 -0.15001,-17.19392 1.97577,-11.85685 6.82881,-21.64108 14.56952,-29.37363 5.76453,-5.75845 11.90377,-9.43904 20.47189,-12.27331 5.42247,-1.7937 14.03355,-3.30361 18.84066,-3.30361 11.64942,0 23.244237,4.9025 32.539827,13.75843 5.23577,4.98812 9.08829,10.28366 12.25493,16.8452 7.13024,14.77442 7.33719,30.87335 0.57894,45.035998 -7.06969,14.815305 -20.5366,25.122435 -37.462887,28.672865 -4.5339,0.95102 -12.66369,1.22983 -17.13608,0.58769 z m 16.7912,-5.23775 c 1.93891,-0.66459 2.08299,-0.77448 2.16822,-1.65364 0.0815,-0.8411 -0.0532,-1.02645 -1.26108,-1.73429 -1.93143,-1.1319 -3.24474,-1.21798 -6.61186,-0.43339 -5.06873,1.1811 -6.48215,0.87264 -11.87124,-2.59082 -5.4882,-3.52715 -6.84958,-4.09126 -9.86909,-4.08944 -5.40492,0.003 -8.46672,2.21299 -6.51112,4.69913 0.84484,1.07404 3.77301,2.51138 8.14299,3.99712 6.26231,2.1291 10.50812,2.72403 18.54395,2.59841 4.5759,-0.0715 5.43887,-0.16569 7.26923,-0.79308 z m 15.937897,-5.68542 c 7.78816,-4.27667 14.84028,-12.9407 18.95562,-23.288325 1.72932,-4.34822 2.97046,-9.443348 3.12567,-12.831548 0.082,-1.78944 0.0198,-3.29457 -0.14606,-3.53638 -0.44201,-0.64438 -2.82855,0.38119 -4.21748,1.81239 -1.63262,1.6823 -2.07682,3.3058 -2.01909,7.37946 0.0593,4.180208 -0.58059,6.802018 -2.7109,11.108258 -2.56392,5.182755 -6.41598,9.702495 -11.68925,13.715365 -1.45266,1.10545 -2.90956,2.37154 -3.23755,2.81354 -0.614047,0.82748 -1.101457,4.09533 -0.609767,4.08823 0.14259,-0.002 1.289557,-0.5695 2.548807,-1.26099 z m -7.778557,-0.21878 c 0.3956,-0.3956 0.59341,-0.98901 0.59341,-1.78022 0,-1.54412 -0.7969,-2.37363 -2.28033,-2.37363 -1.51559,0 -2.46692,0.93531 -2.46692,2.42535 0,1.5275 0.81209,2.3219 2.37362,2.3219 0.79121,0 1.38462,-0.1978 1.78022,-0.5934 z m -11.77368,-2.40072 c 1.33857,-0.38389 2.58617,-1.3638 4.02815,-3.16382 2.24506,-2.80252 5.76006,-3.73512 9.26331,-2.45777 2.17839,0.79427 2.97221,0.68772 5.266737,-0.70694 3.33662,-2.02806 6.85329,-6.11335 9.08715,-10.556465 2.00413,-3.98617 2.52888,-6.0568 2.82431,-11.144588 0.19508,-3.35963 0.41751,-4.89112 0.89618,-6.17048 1.07383,-2.87007 3.91085,-5.27901 7.94107,-6.74285 1.52747,-0.55481 1.94932,-1.68168 1.69991,-4.5409 -0.38326,-4.39365 -2.54498,-11.15942 -3.56552,-11.15942 -0.20504,0 -1.09295,0.90124 -1.97314,2.00275 -1.15935,1.45086 -2.45432,2.57949 -4.69938,4.09571 -3.23933,2.18772 -4.54908,3.61254 -5.05794,5.50231 -0.16676,0.61928 -0.27525,2.83655 -0.24108,4.92724 l 0.0621,3.80126 -1.42083,4.12553 c -1.51722,4.40541 -1.52107,4.44652 -0.88479,9.455948 0.23053,1.81499 -0.2236,2.91612 -1.73689,4.21144 -3.33258,2.85257 -8.328277,2.44 -10.591967,-0.87473 -3.28399,-4.80876 -0.74067,-9.725368 5.25936,-10.167118 3.892127,-0.28656 4.234737,-0.97782 4.525127,-9.12979 0.17172,-4.82044 0.32909,-6.29947 0.83863,-7.88115 0.8654,-2.68636 2.5334,-4.87877 5.42034,-7.12447 3.73007,-2.90155 5.93002,-4.79314 6.55732,-5.63822 1.33706,-1.80124 1.1175,-4.36815 -0.58531,-6.8431 -2.2895,-3.32768 -5.87984,-6.48559 -7.37369,-6.48559 -0.36918,0 -1.51456,0.68437 -2.54529,1.52081 -2.24292,1.82015 -3.91254,2.61862 -6.094917,2.91477 -2.38917,0.32422 -4.23632,-0.12371 -8.54597,-2.07236 -5.03694,-2.2775 -7.07927,-2.76806 -11.56282,-2.77735 -4.12522,-0.008 -6.99827,0.65608 -10.22289,2.36485 -3.13787,1.6628 -3.26623,1.81027 -3.5947,4.12971 -0.34889,2.46358 -1.30627,4.22276 -2.85466,5.24541 -2.51692,1.66234 -4.50001,1.7684 -7.22702,0.38652 -0.79703,-0.40388 -1.63096,-0.73433 -1.85319,-0.73433 -0.8433,0 -3.21117,1.89377 -4.48251,3.58502 -1.62629,2.16345 -2.3922,4.15929 -3.2925,8.57981 -1.18102,5.7988 -2.4425,8.24302 -4.90182,9.49768 -1.19743,0.61088 -4.67702,1.30149 -8.15313,1.61818 -3.25503,0.29655 -3.35149,0.33713 -3.68665,1.55098 -0.33869,1.22662 0.0222,5.65971 0.74326,9.13088 0.83814,4.034598 3.33285,10.521568 4.13628,10.755518 0.16653,0.0485 1.55914,-0.96921 3.09469,-2.26158 1.97146,-1.65925 3.37638,-2.57907 4.78084,-3.13009 1.09391,-0.42919 2.22531,-1.04153 2.51421,-1.36076 0.2889,-0.31923 0.70628,-1.53765 0.9275,-2.707588 1.14822,-6.07245 7.6611,-8.2762 11.82577,-4.00146 2.4141,2.47791 2.92291,5.603018 1.38999,8.537358 -1.58067,3.02575 -4.56113,4.08549 -8.66306,3.08026 -2.88578,-0.7072 -4.85431,-0.50171 -7.33771,0.76594 -1.40645,0.71793 -2.24921,1.3894 -2.88846,2.30139 -0.8163,1.16458 -0.90223,1.50497 -0.89874,3.560435 0.003,2.01659 0.11751,2.48315 1.01227,4.1396 1.19971,2.22101 3.91263,4.84262 5.72919,5.53638 1.54703,0.59081 2.33307,0.37066 3.99467,-1.1188 3.5823,-3.21116 9.89925,-4.20337 14.32031,-2.24929 0.74047,0.32728 2.69269,1.45311 4.33829,2.50185 3.66768,2.33743 5.7361,3.30424 7.85034,3.66938 1.69132,0.2921 5.09349,0.14081 6.60926,-0.29391 z M 100.55556,91.897355 c 1.16465,-0.89419 1.48394,-2.58717 0.69922,-3.70751 -0.6676,-0.95314 -2.571967,-0.91628 -3.557097,0.0688 -0.92268,0.92268 -0.98765,2.57279 -0.13487,3.42557 0.66767,0.66766 2.25361,0.78059 2.992747,0.21309 z m -46.926047,-1.53728 c 0.93582,-0.48394 1.20803,-0.99015 1.20803,-2.24655 0,-2.628848 -2.65982,-3.857348 -4.45809,-2.059068 -1.44278,1.442768 -0.0807,4.618198 2.02502,4.720888 0.21209,0.0104 0.76336,-0.17653 1.22504,-0.41527 z M 38.099953,70.012267 c 1.69315,-0.81964 2.89507,-2.82452 3.54983,-5.9214 1.53282,-7.24985 3.12551,-10.29203 7.5608,-14.44181 1.51164,-1.41434 2.18276,-2.32739 2.94415,-4.0055 0.54241,-1.19546 1.30891,-2.60873 1.70334,-3.1406 1.35219,-1.82334 4.24733,-2.75334 6.62855,-2.12927 3.25034,0.85184 3.73233,0.7693 6.96081,-1.19199 4.57657,-2.78025 8.82259,-3.81953 14.05084,-3.43917 4.01435,0.29205 6.77819,1.09686 11.38942,3.31651 3.80879,1.83339 4.18447,1.95393 5.69819,1.8284 1.998387,-0.16572 4.671997,-1.79399 5.137277,-3.12868 0.7051,-2.02266 -1.0972,-3.65713 -6.867897,-6.22836 -5.88497,-2.62215 -10.81994,-3.98267 -16.51485,-4.55299 -8.05075,-0.80623 -17.62159,1.25944 -25.85127,5.57947 -7.89441,4.14405 -15.41426,11.39748 -19.92679,19.2208 -3.97518,6.89173 -6.48625,16.66356 -4.7734,18.57565 0.53638,0.59877 0.76252,0.627 3.77368,0.47089 2.43611,-0.1263 3.52259,-0.32072 4.53732,-0.81195 z m 22.59651,-21.84496 c 0.63806,-0.8726 0.45247,-2.4184 -0.3917,-3.26258 -0.63269,-0.63268 -0.947,-0.73378 -1.83385,-0.58987 -1.41314,0.22932 -1.97183,0.8403 -1.97183,2.15637 0,1.5284 1.26963,2.61938 2.76575,2.37659 0.58288,-0.0946 1.22711,-0.40082 1.43163,-0.68051 z"
         id="path39"
         inkscape:label="inner" />
      <path
         id="path40"
         style="opacity:1;fill:#16252e;fill-opacity:1;stroke-width:2.71743;stroke-dasharray:none"
         transform="matrix(0.26458333,0,0,0.26458333,-302.50932,-43.558044)"
         d="m 1412.4011,487.64148 v -68.57207 l -11.7046,0.0565 c -6.4375,0.0311 -20.3779,0.043 -30.9786,0.0266 l -19.274,-0.0299 v -17.38167 -17.38168 h 82.2826 82.2826 v 17.34947 17.34948 l -8.4806,0.16864 c -4.6643,0.0928 -18.1947,0.24542 -30.0675,0.33925 -11.8728,0.0938 -21.65,0.23216 -21.7271,0.30739 -0.1402,0.13686 -0.4779,72.66302 -0.532,114.26253 l -0.029,22.07753 h -20.886 -20.8861 z m 20.8447,68.70623 h -20.993 V 487.8477 419.34773 h -31.0001 -30.9999 v -17.5 -17.50001 h 82.5 82.5 v 17.48534 17.48535 l -30.2501,0.26456 -30.2499,0.26457 -0.257,68.24995 -0.2571,68.25003 z m -20.4644,-64.7339 c 0.1078,-58.52817 -0.01,-65.15361 -1.1835,-67.96754 -0.7165,-1.71481 -1.7349,-3.39251 -2.2632,-3.72817 -0.5282,-0.33562 -13.8954,-0.61583 -29.7047,-0.62252 l -28.7444,-0.0113 V 402.63232 385.9804 h 81.6737 81.6736 v 16.62369 16.62368 l -28.9214,0.2264 c -28.8966,0.22639 -28.923,0.2279 -30.7267,2.03232 l -1.8054,1.80586 -0.2199,66.58594 -0.22,66.58594 h -19.8386 -19.8385 z"
         inkscape:label="t" />
    </g>
    <g
       id="g41"
       inkscape:label="text"
       style="display:inline"
       transform="translate(0,-2.1166667)">
      <path
         id="path41"
         style="fill:#16252e;fill-opacity:1;stroke-width:0.264583"
         d="m 300.67519,251.71992 -3.77031,-6e-5 V 236.7709 221.82194 l -5.6224,5e-5 -5.62239,4e-5 0.0494,-3.37348 0.0494,-3.37348 14.95097,-0.0683 14.95096,-0.0683 0.0809,3.44223 0.0809,3.44222 -5.61736,-5.3e-4 -5.61735,-5.3e-4 -0.14554,0.59531 -0.14554,0.59532 0.0743,14.3537 0.0743,14.3537 z m 19.47845,-6e-5 h -3.90718 l 0.35829,-0.8599 0.35828,-0.85989 5.08284,-12.17083 5.08283,-12.17084 1.96322,-4.72787 1.96322,-4.72787 0.39789,-0.76944 0.39789,-0.76943 3.72228,0.0734 3.72228,0.0734 2.90673,6.87916 2.90673,6.87917 4.75956,11.24479 4.75955,11.24479 0.1386,0.33073 0.1386,0.33073 h -3.96841 -3.96841 l -1.56542,-3.9026 -1.56541,-3.90261 h -8.28423 -8.28422 l -1.60417,3.90261 -1.60416,3.9026 z m 15.35649,-14.2875 h 5.54894 l 0.15786,-0.25543 0.15787,-0.25544 -2.72194,-6.68638 -2.72194,-6.68638 -0.41397,-0.0796 -0.41396,-0.0796 -1.14025,2.85422 -1.14026,2.85423 -1.57375,3.79424 -1.57376,3.79425 0.14311,0.37294 0.14311,0.37294 z m 39.44683,14.2875 h -12.7 v -18.38854 -18.38854 h 3.70417 3.70417 v 15.08125 15.08125 h 8.99583 8.99583 v 3.30729 3.30729 z m 25.4,0 h -3.70416 v -18.38854 -18.38854 h 3.70416 3.70417 v 18.38854 18.38854 z m 68.56128,-37.23362 c -3.16282,0.43053 -6.28387,1.23068 -8.99583,2.98288 -9.69166,6.26169 -11.40429,21.1717 -3.15133,29.42469 4.55068,4.55067 11.19635,6.00625 17.43882,5.23959 19.81129,-2.43308 22.30485,-31.6584 2.91042,-37.0333 -2.58831,-0.71731 -5.53702,-0.97663 -8.20208,-0.61386 m -54.23958,0.68115 7.9e-4,12.96559 -7.9e-4,23.54691 h 7.67292 v -12.43542 c 1.77678,0 4.74139,-0.56795 6.33939,0.27194 4.15024,2.1813 4.83537,9.49597 8.82801,11.89154 1.85457,1.11273 6.23647,0.27194 8.38051,0.27194 l -8.99583,-14.02292 c 8.44104,-1.45344 10.4456,-13.52174 4.75189,-19.02529 -4.96139,-4.7957 -13.25014,-3.72888 -19.56856,-3.72888 -2.35505,0 -5.14316,-0.40499 -7.40833,0.26459 m 56.62083,6.00863 c 15.40869,0.21103 15.13115,24.65041 -0.26459,24.29799 -11.73569,-0.26864 -16.92325,-17.47616 -5.82083,-23.06305 1.87161,-0.94181 4.00854,-1.26338 6.08542,-1.23494 m -48.94791,11.18928 v -10.84791 c 3.74862,0 9.34267,-1.01381 12.68958,0.98665 3.00287,1.79486 3.42395,7.08526 0.27091,8.97136 -3.33704,1.99615 -9.18797,0.8899 -12.96049,0.8899"
         transform="translate(-118.69725,-158.32538)"
         inkscape:label="text" />
      <rect
         style="display:inline;fill:#16252e;stroke-width:2.54385"
         id="rect41"
         width="204.76604"
         height="8.3920364"
         x="167.01517"
         y="99.03067"
         inkscape:label="text underline" />
    </g>
  </g>
</svg>
